<svg width="20" height="20" viewBox="0 0 20 20" fill="none" xmlns="http://www.w3.org/2000/svg">
    <path d="M10.0265 18C7.6347 18 5.24291 17.6574 2.97431 16.9722C2.11203 16.7037 1.45506 16.1574 1.16764 15.4444C0.869947 14.7315 0.972599 13.9444 1.4448 13.2407L2.62529 11.4722C2.87166 11.1019 3.09749 10.3611 3.09749 9.92593V7.25C3.09749 3.80556 6.20784 1 10.0265 1C13.8451 1 16.9555 3.80556 16.9555 7.25V9.92593C16.9555 10.3519 17.1813 11.1019 17.4277 11.4815L18.5979 13.2407C19.0393 13.9074 19.1214 14.713 18.8238 15.4444C18.5261 16.1759 17.8794 16.7315 17.0684 16.9722C14.8101 17.6574 12.4183 18 10.0265 18ZM10.0265 2.38889C7.05985 2.38889 4.63727 4.56481 4.63727 7.25V9.92593C4.63727 10.6019 4.32931 11.6019 3.9495 12.1852L2.76901 13.9537C2.54317 14.2963 2.48158 14.6574 2.61503 14.963C2.73821 15.2778 3.04617 15.5185 3.46704 15.6481C7.75788 16.9444 12.3054 16.9444 16.5962 15.6481C16.9658 15.537 17.2532 15.287 17.3866 14.9537C17.5201 14.6204 17.4893 14.2593 17.284 13.9537L16.1035 12.1852C15.7134 11.5833 15.4157 10.5926 15.4157 9.91667V7.25C15.4157 4.56481 13.0034 2.38889 10.0265 2.38889Z" fill="currentColor"/>
    <path d="M12.135 2.99484C12.0544 2.99484 11.9737 2.98399 11.893 2.96229C11.5587 2.87548 11.2359 2.81038 10.9247 2.76698C9.94493 2.64762 8.99972 2.71272 8.11214 2.96229C7.78939 3.05995 7.44358 2.96229 7.22457 2.73442C7.00556 2.50655 6.9364 2.18103 7.06319 1.88805C7.5358 0.748711 8.68849 0 10.0026 0C11.3166 0 12.4693 0.73786 12.9419 1.88805C13.0572 2.18103 12.9996 2.50655 12.7806 2.73442C12.6076 2.90804 12.3656 2.99484 12.135 2.99484Z" fill="currentColor"/>
    <path d="M10 20C8.944 20 7.92 19.68 7.17333 19.12C6.42667 18.56 6 17.792 6 17H7.6C7.6 17.472 7.856 17.936 8.304 18.272C8.752 18.608 9.37067 18.8 10 18.8C11.3227 18.8 12.4 17.992 12.4 17H14C14 18.656 12.208 20 10 20Z" fill="currentColor"/>
</svg>
